# xmcd
#
# Track frame offsets: 
#        150
#        19585
#        40020
#        58154
#        75073
#        101008
#        115557
#        129019
#        143635
#        163485
#        182011
#        200744
#        220534
#
# Disc length: 3232 seconds
#
# Revision: 0
# Processed by: cddbd v1.5.2PL0 Copyright (c) Steve Scherf et al.
# Submitted via: ExactAudioCopy v0.95a4
#
DISCID=a10c9e0d
DTITLE=Various Artist - 粤曲
DYEAR=2007
DGENRE=Blues
TTITLE0=红豆曲
TTITLE1=分飞燕
TTITLE2=彩云追月
TTITLE3=月光光
TTITLE4=禅院钟声
TTITLE5=大地恩情
TTITLE6=扑蝶
TTITLE7=渔舟晚唱
TTITLE8=帝女花
TTITLE9=一水隔天涯
TTITLE10=梁山伯与祝英台之花蝶
TTITLE11=公子多情
TTITLE12=凤阁恩仇末了情
EXTD=
EXTT0=
EXTT1=
EXTT2=
EXTT3=
EXTT4=
EXTT5=
EXTT6=
EXTT7=
EXTT8=
EXTT9=
EXTT10=
EXTT11=
EXTT12=
PLAYORDER=
